<svg width="133" height="15" viewBox="0 0 133 15" fill="none" xmlns="http://www.w3.org/2000/svg">
<path d="M3.18 2.29999V5.79999H7.88001V8.01999H3.18V11.72H8.48001V14H0.380005V0.019989H8.48001V2.29999H3.18Z" fill="#EB6D20"/>
<path d="M19.5445 5.67999V8.03999H11.0645V5.67999H19.5445Z" fill="#EB6D20"/>
<path d="M21.9647 8.45999C21.9647 7.31332 22.198 6.31332 22.6647 5.45999C23.1314 4.59332 23.778 3.92666 24.6047 3.45999C25.4314 2.97999 26.378 2.73999 27.4447 2.73999C28.818 2.73999 29.9514 3.08666 30.8447 3.77999C31.7514 4.45999 32.358 5.41999 32.6647 6.65999H29.6447C29.4847 6.17999 29.2114 5.80666 28.8247 5.53999C28.4514 5.25999 27.9847 5.11999 27.4247 5.11999C26.6247 5.11999 25.9914 5.41332 25.5247 5.99999C25.058 6.57332 24.8247 7.39332 24.8247 8.45999C24.8247 9.51332 25.058 10.3333 25.5247 10.92C25.9914 11.4933 26.6247 11.78 27.4247 11.78C28.558 11.78 29.298 11.2733 29.6447 10.26H32.6647C32.358 11.46 31.7514 12.4133 30.8447 13.12C29.938 13.8267 28.8047 14.18 27.4447 14.18C26.378 14.18 25.4314 13.9467 24.6047 13.48C23.778 13 23.1314 12.3333 22.6647 11.48C22.198 10.6133 21.9647 9.60666 21.9647 8.45999Z" fill="#EB6D20"/>
<path d="M39.6359 14.18C38.5693 14.18 37.6093 13.9467 36.7559 13.48C35.9026 13 35.2293 12.3267 34.7359 11.46C34.2559 10.5933 34.0159 9.59332 34.0159 8.45999C34.0159 7.32666 34.2626 6.32666 34.7559 5.45999C35.2626 4.59332 35.9493 3.92666 36.8159 3.45999C37.6826 2.97999 38.6493 2.73999 39.7159 2.73999C40.7826 2.73999 41.7493 2.97999 42.6159 3.45999C43.4826 3.92666 44.1626 4.59332 44.6559 5.45999C45.1626 6.32666 45.4159 7.32666 45.4159 8.45999C45.4159 9.59332 45.1559 10.5933 44.6359 11.46C44.1293 12.3267 43.4359 13 42.5559 13.48C41.6893 13.9467 40.7159 14.18 39.6359 14.18ZM39.6359 11.74C40.1426 11.74 40.6159 11.62 41.0559 11.38C41.5093 11.1267 41.8693 10.7533 42.1359 10.26C42.4026 9.76666 42.5359 9.16666 42.5359 8.45999C42.5359 7.40666 42.2559 6.59999 41.6959 6.03999C41.1493 5.46666 40.4759 5.17999 39.6759 5.17999C38.8759 5.17999 38.2026 5.46666 37.6559 6.03999C37.1226 6.59999 36.8559 7.40666 36.8559 8.45999C36.8559 9.51332 37.1159 10.3267 37.6359 10.9C38.1693 11.46 38.8359 11.74 39.6359 11.74Z" fill="#EB6D20"/>
<path d="M61.2299 2.75999C62.5899 2.75999 63.6832 3.17999 64.5098 4.01999C65.3498 4.84666 65.7699 6.00666 65.7699 7.49999V14H62.9698V7.87999C62.9698 7.01332 62.7498 6.35332 62.3098 5.89999C61.8699 5.43332 61.2699 5.19999 60.5098 5.19999C59.7499 5.19999 59.1432 5.43332 58.6898 5.89999C58.2498 6.35332 58.0299 7.01332 58.0299 7.87999V14H55.2299V7.87999C55.2299 7.01332 55.0098 6.35332 54.5698 5.89999C54.1298 5.43332 53.5298 5.19999 52.7698 5.19999C51.9965 5.19999 51.3832 5.43332 50.9298 5.89999C50.4898 6.35332 50.2698 7.01332 50.2698 7.87999V14H47.4698V2.91999H50.2698V4.25999C50.6298 3.79332 51.0898 3.42666 51.6498 3.15999C52.2232 2.89332 52.8498 2.75999 53.5299 2.75999C54.3965 2.75999 55.1698 2.94666 55.8498 3.31999C56.5299 3.67999 57.0565 4.19999 57.4298 4.87999C57.7898 4.23999 58.3098 3.72666 58.9898 3.33999C59.6832 2.95332 60.4299 2.75999 61.2299 2.75999Z" fill="#EB6D20"/>
<path d="M82.1869 2.75999C83.5469 2.75999 84.6402 3.17999 85.4669 4.01999C86.3069 4.84666 86.7269 6.00666 86.7269 7.49999V14H83.9269V7.87999C83.9269 7.01332 83.7069 6.35332 83.2669 5.89999C82.8269 5.43332 82.2269 5.19999 81.4669 5.19999C80.7069 5.19999 80.1002 5.43332 79.6469 5.89999C79.2069 6.35332 78.9869 7.01332 78.9869 7.87999V14H76.1869V7.87999C76.1869 7.01332 75.9669 6.35332 75.5269 5.89999C75.0869 5.43332 74.4869 5.19999 73.7269 5.19999C72.9536 5.19999 72.3402 5.43332 71.8869 5.89999C71.4469 6.35332 71.2269 7.01332 71.2269 7.87999V14H68.4269V2.91999H71.2269V4.25999C71.5869 3.79332 72.0469 3.42666 72.6069 3.15999C73.1802 2.89332 73.8069 2.75999 74.4869 2.75999C75.3535 2.75999 76.1269 2.94666 76.8069 3.31999C77.4869 3.67999 78.0135 4.19999 78.3869 4.87999C78.7469 4.23999 79.2669 3.72666 79.9469 3.33999C80.6402 2.95332 81.3869 2.75999 82.1869 2.75999Z" fill="#EB6D20"/>
<path d="M99.6839 8.21999C99.6839 8.61999 99.6572 8.97999 99.6039 9.29999H91.5039C91.5706 10.1 91.8506 10.7267 92.3439 11.18C92.8372 11.6333 93.4439 11.86 94.1639 11.86C95.2039 11.86 95.9439 11.4133 96.3839 10.52H99.4039C99.0839 11.5867 98.4706 12.4667 97.5639 13.16C96.6572 13.84 95.5439 14.18 94.2239 14.18C93.1572 14.18 92.1972 13.9467 91.3439 13.48C90.5039 13 89.8439 12.3267 89.3639 11.46C88.8972 10.5933 88.6639 9.59332 88.6639 8.45999C88.6639 7.31332 88.8972 6.30666 89.3639 5.43999C89.8306 4.57332 90.4839 3.90666 91.3239 3.43999C92.1639 2.97332 93.1306 2.73999 94.2239 2.73999C95.2773 2.73999 96.2172 2.96666 97.0439 3.41999C97.8839 3.87332 98.5306 4.51999 98.9839 5.35999C99.4506 6.18666 99.6839 7.13999 99.6839 8.21999ZM96.7839 7.41999C96.7706 6.69999 96.5106 6.12666 96.0039 5.69999C95.4972 5.25999 94.8772 5.03999 94.1439 5.03999C93.4506 5.03999 92.8639 5.25332 92.3839 5.67999C91.9172 6.09332 91.6306 6.67332 91.5239 7.41999H96.7839Z" fill="#EB6D20"/>
<path d="M104.528 4.63999C104.888 4.05332 105.354 3.59332 105.928 3.25999C106.514 2.92666 107.181 2.75999 107.928 2.75999V5.69999H107.188C106.308 5.69999 105.641 5.90666 105.188 6.31999C104.748 6.73332 104.528 7.45332 104.528 8.47999V14H101.728V2.91999H104.528V4.63999Z" fill="#EB6D20"/>
<path d="M109.094 8.45999C109.094 7.31332 109.327 6.31332 109.794 5.45999C110.26 4.59332 110.907 3.92666 111.734 3.45999C112.56 2.97999 113.507 2.73999 114.574 2.73999C115.947 2.73999 117.08 3.08666 117.974 3.77999C118.88 4.45999 119.487 5.41999 119.794 6.65999H116.774C116.614 6.17999 116.34 5.80666 115.954 5.53999C115.58 5.25999 115.114 5.11999 114.554 5.11999C113.754 5.11999 113.12 5.41332 112.654 5.99999C112.187 6.57332 111.954 7.39332 111.954 8.45999C111.954 9.51332 112.187 10.3333 112.654 10.92C113.12 11.4933 113.754 11.78 114.554 11.78C115.687 11.78 116.427 11.2733 116.774 10.26H119.794C119.487 11.46 118.88 12.4133 117.974 13.12C117.067 13.8267 115.934 14.18 114.574 14.18C113.507 14.18 112.56 13.9467 111.734 13.48C110.907 13 110.26 12.3333 109.794 11.48C109.327 10.6133 109.094 9.60666 109.094 8.45999Z" fill="#EB6D20"/>
<path d="M132.145 8.21999C132.145 8.61999 132.118 8.97999 132.065 9.29999H123.965C124.032 10.1 124.312 10.7267 124.805 11.18C125.298 11.6333 125.905 11.86 126.625 11.86C127.665 11.86 128.405 11.4133 128.845 10.52H131.865C131.545 11.5867 130.932 12.4667 130.025 13.16C129.118 13.84 128.005 14.18 126.685 14.18C125.618 14.18 124.658 13.9467 123.805 13.48C122.965 13 122.305 12.3267 121.825 11.46C121.358 10.5933 121.125 9.59332 121.125 8.45999C121.125 7.31332 121.358 6.30666 121.825 5.43999C122.292 4.57332 122.945 3.90666 123.785 3.43999C124.625 2.97332 125.592 2.73999 126.685 2.73999C127.738 2.73999 128.678 2.96666 129.505 3.41999C130.345 3.87332 130.992 4.51999 131.445 5.35999C131.912 6.18666 132.145 7.13999 132.145 8.21999ZM129.245 7.41999C129.232 6.69999 128.972 6.12666 128.465 5.69999C127.958 5.25999 127.338 5.03999 126.605 5.03999C125.912 5.03999 125.325 5.25332 124.845 5.67999C124.378 6.09332 124.092 6.67332 123.985 7.41999H129.245Z" fill="#EB6D20"/>
</svg>
